<svg width="26" height="26" viewBox="0 0 26 26" fill="none" xmlns="http://www.w3.org/2000/svg">
<path d="M19.5813 1.68359L24.102 6.39609V24.3166H7.21423V24.3751H24.1597V6.45541L19.5813 1.68359Z" fill="#909090"/>
<path d="M19.5252 1.625H7.15649V24.3165H24.102V6.39681L19.5252 1.625Z" fill="#F4F4F4"/>
<path d="M7.03221 2.84375H1.84033V8.39069H18.1716V2.84375H7.03221Z" fill="#7A7B7C"/>
<path d="M18.2585 8.29636H1.94592V2.74536H18.2585V8.29636Z" fill="#DD2025"/>
<path d="M7.35478 3.68392H6.29285V7.58392H7.1281V6.26848L7.31253 6.27904C7.49181 6.27657 7.66944 6.24445 7.83822 6.18398C7.9866 6.1336 8.12297 6.0531 8.23878 5.94754C8.35754 5.84796 8.45085 5.72151 8.51097 5.57867C8.59323 5.342 8.62236 5.09011 8.59628 4.84092C8.59165 4.66286 8.56043 4.48649 8.50366 4.31767C8.4525 4.19564 8.37642 4.08563 8.28031 3.99469C8.18419 3.90375 8.07015 3.83388 7.94547 3.78954C7.83799 3.74973 7.7266 3.72141 7.61316 3.70504C7.52747 3.69109 7.44079 3.68402 7.35397 3.68392M7.20041 5.54779H7.1281V4.34529H7.28491C7.35412 4.3403 7.42356 4.35092 7.48811 4.37638C7.55267 4.40183 7.61067 4.44147 7.65785 4.49235C7.75561 4.62318 7.80783 4.78242 7.80653 4.94573C7.80653 5.1456 7.80653 5.32679 7.62616 5.45435C7.49625 5.52591 7.34831 5.55891 7.20041 5.54779ZM10.1831 3.67335C10.0929 3.67335 10.0052 3.67985 9.94341 3.68229L9.75003 3.68717H9.11628V7.58717H9.86216C10.1472 7.5945 10.4309 7.5462 10.6974 7.44498C10.912 7.36023 11.102 7.22308 11.2499 7.04604C11.3949 6.86823 11.4984 6.66033 11.553 6.43748C11.6171 6.18554 11.6482 5.92636 11.6456 5.66642C11.6615 5.35942 11.6377 5.05165 11.5749 4.75073C11.5148 4.52948 11.4034 4.32547 11.2499 4.15517C11.1295 4.01746 10.9814 3.90671 10.8152 3.83017C10.6729 3.76419 10.5231 3.71563 10.3692 3.68554C10.3079 3.67551 10.2459 3.67088 10.1839 3.67173M10.036 6.87054H9.95478V4.38104H9.96535C10.1329 4.36167 10.3024 4.3919 10.4528 4.46798C10.5631 4.55599 10.6529 4.66688 10.7161 4.79298C10.7843 4.92569 10.8236 5.07135 10.8315 5.22035C10.8388 5.3991 10.8315 5.54535 10.8315 5.66642C10.8345 5.80587 10.8255 5.94531 10.8047 6.08323C10.7791 6.22466 10.7328 6.36154 10.6673 6.48948C10.5934 6.60879 10.4923 6.709 10.3724 6.78198C10.2722 6.84698 10.1535 6.87724 10.0344 6.8681M14.1619 3.68717H12.1875V7.58717H13.0228V6.04017H14.079V5.31542H13.0228V4.41192H14.1603V3.68717" fill="#464648"/>
<path d="M17.6971 16.4572C17.6971 16.4572 20.2873 15.9876 20.2873 16.8724C20.2873 17.7572 18.6826 17.3973 17.6971 16.4572ZM15.782 16.5247C15.3704 16.6154 14.9693 16.7485 14.5852 16.922L14.9102 16.1907C15.2352 15.4595 15.5724 14.4625 15.5724 14.4625C15.9592 15.1159 16.4105 15.7289 16.9195 16.2923C16.5363 16.3494 16.1566 16.4275 15.782 16.5263V16.5247ZM14.7566 11.2434C14.7566 10.4724 15.0061 10.2619 15.2002 10.2619C15.3944 10.2619 15.613 10.3554 15.6203 11.0249C15.5569 11.698 15.416 12.3617 15.2002 13.0025C14.9037 12.4648 14.7506 11.8598 14.7558 11.2459L14.7566 11.2434ZM10.9793 19.7877C10.1847 19.3124 12.6457 17.849 13.0918 17.8019C13.0894 17.8027 11.8113 20.2849 10.9793 19.7877ZM21.0437 16.9772C21.0356 16.896 20.9625 15.9965 19.3619 16.0347C18.6947 16.023 18.0278 16.0701 17.3688 16.1753C16.7301 15.5324 16.1803 14.8069 15.7341 14.0181C16.015 13.205 16.1853 12.3578 16.2402 11.4994C16.2167 10.5244 15.9835 9.96535 15.236 9.97348C14.4885 9.9816 14.3796 10.6357 14.4779 11.609C14.5742 12.2632 14.7558 12.9018 15.0182 13.5087C15.0182 13.5087 14.6729 14.5836 14.2163 15.6529C13.7597 16.7221 13.4477 17.2827 13.4477 17.2827C12.6535 17.5409 11.906 17.925 11.2336 18.4202C10.5641 19.0434 10.2919 19.522 10.6446 20.0005C10.9484 20.4133 12.012 20.5067 12.9626 19.2612C13.4668 18.6172 13.9283 17.9408 14.3439 17.2364C14.3439 17.2364 15.7934 16.8391 16.2443 16.7302C16.6952 16.6214 17.2404 16.5352 17.2404 16.5352C17.2404 16.5352 18.564 17.8669 19.8404 17.8198C21.1169 17.7727 21.0551 17.0569 21.047 16.9789" fill="#DD2025"/>
<path d="M19.4626 1.6875V6.45931H24.0395L19.4626 1.6875Z" fill="#909090"/>
<path d="M19.5251 1.625V6.39681H24.102L19.5251 1.625Z" fill="#F4F4F4"/>
<path d="M7.29216 3.62142H6.23022V7.52142H7.06872V6.20679L7.25397 6.21735C7.43325 6.21488 7.61088 6.18276 7.77966 6.12229C7.92804 6.07191 8.06441 5.99142 8.18022 5.88585C8.29809 5.786 8.39055 5.65957 8.44997 5.51698C8.53223 5.28031 8.56136 5.02843 8.53529 4.77923C8.53065 4.60117 8.49943 4.42481 8.44266 4.25598C8.3915 4.13395 8.31543 4.02394 8.21931 3.933C8.12319 3.84206 8.00915 3.77219 7.88447 3.72785C7.7765 3.68766 7.66456 3.65906 7.55054 3.64254C7.46484 3.62859 7.37817 3.62152 7.29135 3.62142M7.13779 5.48529H7.06547V4.28279H7.2231C7.29231 4.2778 7.36175 4.28843 7.42631 4.31388C7.49086 4.33933 7.54886 4.37897 7.59604 4.42985C7.6938 4.56068 7.74602 4.71992 7.74472 4.88323C7.74472 5.0831 7.74472 5.26429 7.56435 5.39185C7.43444 5.46341 7.2865 5.4956 7.1386 5.48448M10.1205 3.61085C10.0303 3.61085 9.94254 3.61735 9.88079 3.61979L9.68985 3.62467H9.0561V7.52467H9.80197C10.087 7.532 10.3707 7.4837 10.6372 7.38248C10.8518 7.29773 11.0418 7.16058 11.1897 6.98354C11.3347 6.80573 11.4382 6.59783 11.4928 6.37498C11.5569 6.12304 11.588 5.86386 11.5854 5.60392C11.6013 5.29692 11.5776 4.98915 11.5147 4.68823C11.4546 4.46698 11.3432 4.26297 11.1897 4.09267C11.0693 3.95496 10.9212 3.84421 10.755 3.76767C10.6127 3.70169 10.4629 3.65313 10.309 3.62304C10.2477 3.61301 10.1858 3.60838 10.1237 3.60923M9.97585 6.80804H9.8946V4.31854H9.90516C10.0727 4.29917 10.2422 4.3294 10.3927 4.40548C10.5029 4.49349 10.5927 4.60438 10.6559 4.73048C10.7241 4.86319 10.7634 5.00885 10.7713 5.15785C10.7786 5.3366 10.7713 5.48285 10.7713 5.60392C10.7743 5.74337 10.7653 5.88281 10.7445 6.02073C10.7189 6.16216 10.6726 6.29904 10.6072 6.42698C10.5332 6.54629 10.4321 6.6465 10.3122 6.71948C10.2121 6.78448 10.0933 6.81474 9.97422 6.8056M14.0993 3.62467H12.1249V7.52467H12.9602V5.97767H14.0164V5.25292H12.9602V4.34942H14.0977V3.62467" fill="white"/>
</svg>
